<svg xmlns="http://www.w3.org/2000/svg" xmlns:xlink="http://www.w3.org/1999/xlink" width="197.246" height="47.783" viewBox="0 0 197.246 47.783">
  <defs>
    <linearGradient id="linear-gradient" y1="0.5" x2="1" y2="0.5" gradientUnits="objectBoundingBox">
      <stop offset="0" stop-color="#6cd9ff"/>
      <stop offset="0.14" stop-color="#64d0fb"/>
      <stop offset="0.38" stop-color="#4eb6f0"/>
      <stop offset="0.68" stop-color="#2b8dde"/>
      <stop offset="0.99" stop-color="#005ac8"/>
    </linearGradient>
    <linearGradient id="linear-gradient-2" y1="0.5" x2="1.001" y2="0.5" gradientUnits="objectBoundingBox">
      <stop offset="0" stop-color="#6cd9ff"/>
      <stop offset="0.99" stop-color="#6cd9ff"/>
    </linearGradient>
  </defs>
  <g id="Layer_2" data-name="Layer 2" transform="translate(0.005 -0.006)">
    <g id="Layer_1" data-name="Layer 1" transform="translate(-0.005 0.006)">
      <path id="Path_1" data-name="Path 1" d="M11.232,17.241A15.2,15.2,0,0,0,6.787,28.272,15.526,15.526,0,0,0,33.249,39.223V17.093C27.144,11.379,17.119,11.369,11.232,17.241ZM23.972,22.2a.917.917,0,0,1-.193,1.363l-1.031.649a.907.907,0,0,1-1.15-.114,3.038,3.038,0,0,0-.966-.684,3.112,3.112,0,0,0-2.4,0h0a.907.907,0,0,0,0,1.64,5.049,5.049,0,0,1,.61.312.907.907,0,0,1,.168,1.387l-.852.917a.9.9,0,0,1-1.046.213,2.18,2.18,0,0,0-2.443.342,2.146,2.146,0,0,0-.649,1.536,2.066,2.066,0,0,0,.6,1.487c.788.788,2.666.273,3.067-.1,2.289-2.161,4.242-4.192,5.064-5.054l.059-.064a5.2,5.2,0,0,1,7.156,0,5.119,5.119,0,0,1-3.558,8.806h0a5.149,5.149,0,0,1-2.81-.823.912.912,0,0,1-.154-1.417l.842-.847a.917.917,0,0,1,1.07-.183,2.121,2.121,0,0,0,.991.253h0a2.071,2.071,0,0,0,1.487-.624,2.047,2.047,0,0,0,.585-1.487,2.071,2.071,0,0,0-.624-1.487,2.126,2.126,0,0,0-2.9-.025c-.842.912-2.834,2.973-5.154,5.154-1.526,1.432-5.263,2.076-7.3.04A5.074,5.074,0,0,1,10.95,29.7a5.193,5.193,0,0,1,1.586-3.682,4.956,4.956,0,0,1,.8-.59.882.882,0,0,0,.4-.644,4.847,4.847,0,0,1,.089-.525,5.574,5.574,0,0,1,3.191-3.632A6.046,6.046,0,0,1,24,22.177Z" transform="translate(-3.42 -6.471)" fill="none"/>
      <path id="Path_2" data-name="Path 2" d="M89.788,31.388l-3.821-2.364a.882.882,0,0,0-1.348.753v4.727a.882.882,0,0,0,1.348.748l3.821-2.344a.887.887,0,0,0,0-1.521Z" transform="translate(-42.685 -14.578)" fill="none"/>
      <path id="Path_3" data-name="Path 3" d="M53.154,11.162,31.013.092a.823.823,0,0,0-1.189.733V6.539A18.949,18.949,0,0,0,5.448,8.392,18.558,18.558,0,0,0,0,21.836,19.053,19.053,0,0,0,5.8,35.345a18.83,18.83,0,0,0,13.033,5.188,19.207,19.207,0,0,0,10.981-3.439v7.775a.922.922,0,0,0,1.69.5L41.806,29.9a.5.5,0,0,1,.312-.168L53.02,27a1.328,1.328,0,0,0,.991-1.288V12.585a1.591,1.591,0,0,0-.857-1.422ZM29.824,32.753a15.738,15.738,0,0,1-21.7.164,15.654,15.654,0,0,1-4.757-11.11,15.2,15.2,0,0,1,4.46-11.026c5.887-5.872,15.912-5.862,22.017-.149ZM47.1,18.338,43.278,20.7a.882.882,0,0,1-1.348-.748V15.206a.882.882,0,0,1,1.348-.753L47.1,16.817a.887.887,0,0,1,0,1.521Z" transform="translate(0.005 -0.006)" fill="url(#linear-gradient)"/>
      <path id="Path_4" data-name="Path 4" d="M21.25,28.056a5.574,5.574,0,0,0-3.191,3.632,4.846,4.846,0,0,0-.089.54.882.882,0,0,1-.4.644,4.955,4.955,0,0,0-.748.59,5.193,5.193,0,0,0-1.586,3.682,5.074,5.074,0,0,0,1.487,3.677c2.037,2.037,5.773,1.392,7.3-.04,2.319-2.175,4.311-4.242,5.154-5.154a2.126,2.126,0,0,1,2.9.025,2.071,2.071,0,0,1,.624,1.487,2.047,2.047,0,0,1-.585,1.487,2.071,2.071,0,0,1-1.487.624h0A2.121,2.121,0,0,1,29.644,39a.917.917,0,0,0-1.1.168l-.882.867a.912.912,0,0,0,.154,1.417,5.149,5.149,0,0,0,2.81.823h0a5.129,5.129,0,0,0,3.558-8.806,5.2,5.2,0,0,0-7.156,0l-.059.064c-.8.862-2.75,2.894-5.04,5.04-.4.377-2.279.892-3.067.1a2.066,2.066,0,0,1-.6-1.487,2.146,2.146,0,0,1,.644-1.521,2.18,2.18,0,0,1,2.443-.342.9.9,0,0,0,1.046-.213l.852-.917a.907.907,0,0,0-.168-1.388,5.05,5.05,0,0,0-.61-.312.907.907,0,0,1,0-1.64h0a3.112,3.112,0,0,1,2.4,0,3.038,3.038,0,0,1,.966.684.907.907,0,0,0,1.169.094l1.026-.669a.917.917,0,0,0,.193-1.363,6.046,6.046,0,0,0-6.987-1.546Z" transform="translate(-7.685 -13.896)" fill="url(#linear-gradient-2)"/>
      <g id="Group_1576" data-name="Group 1576">
        <path id="Path_5" data-name="Path 5" d="M146.464,21.291a4.425,4.425,0,0,0-1.63-1.239,5.451,5.451,0,0,0-2.235-.431,5.6,5.6,0,0,0-4.222,1.858,6.442,6.442,0,0,0-1.244,2.091,7.983,7.983,0,0,0,0,5.263,6.66,6.66,0,0,0,1.229,2.076,5.555,5.555,0,0,0,1.829,1.368,5.3,5.3,0,0,0,2.265.5,5.124,5.124,0,0,0,2.448-.58,4.985,4.985,0,0,0,1.764-1.615l3.746,2.795a7.8,7.8,0,0,1-3.285,2.681,10.149,10.149,0,0,1-4.1.867,12.562,12.562,0,0,1-4.41-.748,10.109,10.109,0,0,1-3.469-2.151,9.748,9.748,0,0,1-2.294-3.389,11.562,11.562,0,0,1-.818-4.46,11.6,11.6,0,0,1,.818-4.46,9.772,9.772,0,0,1,2.294-3.385,10.034,10.034,0,0,1,3.469-2.151,12.562,12.562,0,0,1,4.41-.748,10.456,10.456,0,0,1,1.8.159,9.416,9.416,0,0,1,1.843.5,8,8,0,0,1,1.749.922,6.824,6.824,0,0,1,1.487,1.412Z" transform="translate(-66.605 -7.786)" fill="#333"/>
        <path id="Path_6" data-name="Path 6" d="M171.62,13.76h4.326v21.8H171.62Z" transform="translate(-86.573 -6.944)" fill="#333"/>
        <path id="Path_7" data-name="Path 7" d="M184.129,36.124a7.388,7.388,0,0,1,.6-3.028,6.992,6.992,0,0,1,1.66-2.319,7.349,7.349,0,0,1,2.478-1.487,9.158,9.158,0,0,1,6.085,0,7.369,7.369,0,0,1,2.478,1.487A6.982,6.982,0,0,1,199.09,33.1a7.884,7.884,0,0,1,0,6.055,6.938,6.938,0,0,1-1.645,2.324,7.28,7.28,0,0,1-2.478,1.487,9.158,9.158,0,0,1-6.085,0,7.255,7.255,0,0,1-2.478-1.487,6.962,6.962,0,0,1-1.66-2.324A7.373,7.373,0,0,1,184.129,36.124Zm4.326,0a3.627,3.627,0,0,0,.907,2.567,3.811,3.811,0,0,0,5.1,0,4.078,4.078,0,0,0,0-5.134,3.825,3.825,0,0,0-5.1,0A3.632,3.632,0,0,0,188.455,36.124Z" transform="translate(-92.884 -14.516)" fill="#333"/>
        <path id="Path_8" data-name="Path 8" d="M232.718,43.484h-4.153v-1.9h-.035a4.457,4.457,0,0,1-.59.808,3.885,3.885,0,0,1-.9.723,5.272,5.272,0,0,1-1.184.5,4.955,4.955,0,0,1-1.442.2,6.045,6.045,0,0,1-2.666-.5,3.831,3.831,0,0,1-1.586-1.4,5.451,5.451,0,0,1-.748-2.106,16.683,16.683,0,0,1-.188-2.621V29.47h4.346v6.863c0,.406,0,.823.04,1.254a4,4,0,0,0,.263,1.2,1.982,1.982,0,0,0,.664.892,2.042,2.042,0,0,0,1.283.347,2.656,2.656,0,0,0,1.353-.3,2.066,2.066,0,0,0,.793-.808,3.312,3.312,0,0,0,.362-1.14,10.328,10.328,0,0,0,.084-1.328V29.47h4.326Z" transform="translate(-110.59 -14.869)" fill="#333"/>
        <path id="Path_9" data-name="Path 9" d="M265.342,35.559h-3.964V33.7h-.059a4.836,4.836,0,0,1-.674.763,5.536,5.536,0,0,1-.991.709,6.117,6.117,0,0,1-1.244.5,4.891,4.891,0,0,1-1.4.2,7.21,7.21,0,0,1-2.825-.535,6.209,6.209,0,0,1-2.175-1.487,6.54,6.54,0,0,1-1.4-2.294,8.315,8.315,0,0,1-.5-2.909,8.879,8.879,0,0,1,.446-2.815,7.715,7.715,0,0,1,1.269-2.379,6.11,6.11,0,0,1,1.982-1.655,5.659,5.659,0,0,1,2.686-.6,7.433,7.433,0,0,1,2.522.421,3.965,3.965,0,0,1,1.938,1.427h.059V13.76h4.326Zm-3.964-7.007a3.632,3.632,0,0,0-.912-2.567,3.826,3.826,0,0,0-5.1,0,3.638,3.638,0,0,0-.912,2.567,3.628,3.628,0,0,0,.912,2.567,3.811,3.811,0,0,0,5.1,0,3.628,3.628,0,0,0,.9-2.567Z" transform="translate(-126.173 -6.944)" fill="#333"/>
        <path id="Path_10" data-name="Path 10" d="M287.47,16.56h7.587a14.9,14.9,0,0,1,3,.287,6.808,6.808,0,0,1,2.478.991,5.094,5.094,0,0,1,1.66,1.913,6.53,6.53,0,0,1,.619,3.013,6.938,6.938,0,0,1-.58,2.973,4.887,4.887,0,0,1-1.586,1.933,6.4,6.4,0,0,1-2.389,1.021,13.983,13.983,0,0,1-3,.3h-3.285v7.978h-4.5Zm4.5,8.642h3a6,6,0,0,0,1.169-.114,3.156,3.156,0,0,0,.991-.391,2.057,2.057,0,0,0,.724-.748,2.354,2.354,0,0,0,.272-1.194,2.016,2.016,0,0,0-.362-1.259,2.364,2.364,0,0,0-.922-.733,3.964,3.964,0,0,0-1.254-.332c-.461-.045-.9-.069-1.328-.069h-2.3Z" transform="translate(-145.015 -8.357)" fill="#333"/>
        <path id="Path_11" data-name="Path 11" d="M321.69,13.76h4.321v21.8H321.69Z" transform="translate(-162.278 -6.944)" fill="#333"/>
        <path id="Path_12" data-name="Path 12" d="M348.062,40.7a6.9,6.9,0,0,1-2.616,2.052,7.879,7.879,0,0,1-3.29.719,8.82,8.82,0,0,1-3.043-.52,7.254,7.254,0,0,1-2.478-1.487,6.962,6.962,0,0,1-1.66-2.324,7.884,7.884,0,0,1,0-6.055,6.992,6.992,0,0,1,1.66-2.319,7.349,7.349,0,0,1,2.478-1.487,8.82,8.82,0,0,1,3.043-.52,6.908,6.908,0,0,1,2.725.52,5.665,5.665,0,0,1,2.076,1.487,6.8,6.8,0,0,1,1.313,2.319,9.38,9.38,0,0,1,.461,3.028v1.358H338.7a3.424,3.424,0,0,0,1.125,1.982,3.182,3.182,0,0,0,2.136.738,3.246,3.246,0,0,0,1.8-.5,4.866,4.866,0,0,0,1.283-1.229ZM344.4,34.532a2.518,2.518,0,0,0-.719-1.873,2.562,2.562,0,0,0-1.933-.778,3.241,3.241,0,0,0-1.269.228,3.186,3.186,0,0,0-.937.595,2.475,2.475,0,0,0-.6.832,2.68,2.68,0,0,0-.248.991Z" transform="translate(-168.675 -14.511)" fill="#333"/>
        <path id="Path_13" data-name="Path 13" d="M369.175,35.986l-4.668-6.516h5.1l2.478,3.806,2.393-3.806h4.817l-4.574,6.516,5.391,7.5h-5.1l-3.053-4.668-3.29,4.668H363.64Z" transform="translate(-183.44 -14.869)" fill="#333"/>
      </g>
      <path id="Path_14" data-name="Path 14" d="M136.23,75v4.866a3.266,3.266,0,0,0,.1.768,2.3,2.3,0,0,0,.337.733,1.853,1.853,0,0,0,.619.57,2.185,2.185,0,0,0,1.883,0,1.833,1.833,0,0,0,.614-.55,2.105,2.105,0,0,0,.337-.733,3.041,3.041,0,0,0,.1-.768V75H141.3v5.035a3.261,3.261,0,0,1-.238,1.264,2.88,2.88,0,0,1-.649.991,2.914,2.914,0,0,1-.991.644,3.4,3.4,0,0,1-2.423,0,2.894,2.894,0,0,1-.991-.644,2.973,2.973,0,0,1-.654-.991,3.354,3.354,0,0,1-.233-1.264V75Z" transform="translate(-68.16 -37.838)" fill="#4c4b45"/>
      <path id="Path_15" data-name="Path 15" d="M150.325,80.179h.991v.847h0a1.487,1.487,0,0,1,.659-.694,2.23,2.23,0,0,1,1.09-.263,2.275,2.275,0,0,1,.733.119,1.576,1.576,0,0,1,.614.367,1.694,1.694,0,0,1,.421.629,2.448,2.448,0,0,1,.159.917v3.385H154V82.354a1.714,1.714,0,0,0-.1-.629,1.165,1.165,0,0,0-.268-.426,1.05,1.05,0,0,0-.387-.238,1.416,1.416,0,0,0-.456-.074,1.631,1.631,0,0,0-.585.1,1.2,1.2,0,0,0-.471.317,1.546,1.546,0,0,0-.312.555,2.537,2.537,0,0,0-.114.8v2.725h-.991Z" transform="translate(-75.828 -40.395)" fill="#4c4b45"/>
      <path id="Path_16" data-name="Path 16" d="M162.5,73.91h.991v8.469H162.5Z" transform="translate(-81.973 -37.288)" fill="#4c4b45"/>
      <path id="Path_17" data-name="Path 17" d="M167.65,83.186a1.348,1.348,0,0,0,.149.634,1.545,1.545,0,0,0,.4.5,1.808,1.808,0,0,0,.57.312,2.072,2.072,0,0,0,.674.114,1.526,1.526,0,0,0,.818-.218,2.7,2.7,0,0,0,.639-.58l.763.585a2.81,2.81,0,0,1-2.354,1.085,2.9,2.9,0,0,1-1.14-.213,2.428,2.428,0,0,1-.862-.59,2.592,2.592,0,0,1-.545-.882,3.1,3.1,0,0,1-.193-1.105,2.9,2.9,0,0,1,.208-1.105,2.765,2.765,0,0,1,.575-.887,2.587,2.587,0,0,1,.867-.59,2.865,2.865,0,0,1,1.1-.213,2.646,2.646,0,0,1,1.194.248,2.4,2.4,0,0,1,.8.644,2.592,2.592,0,0,1,.451.9,3.727,3.727,0,0,1,.144,1.016v.357Zm3.181-.808a2.021,2.021,0,0,0-.1-.614,1.294,1.294,0,0,0-.287-.5,1.358,1.358,0,0,0-.5-.327,1.69,1.69,0,0,0-1.868.387,1.763,1.763,0,0,0-.332.5,1.427,1.427,0,0,0-.114.54Z" transform="translate(-84.026 -40.374)" fill="#4c4b45"/>
      <path id="Path_18" data-name="Path 18" d="M178.967,80.807a2.77,2.77,0,0,1,.991-.59,3.32,3.32,0,0,1,1.12-.2,3.032,3.032,0,0,1,.991.149,1.932,1.932,0,0,1,.689.391,1.526,1.526,0,0,1,.4.565,1.709,1.709,0,0,1,.139.669V85a2.351,2.351,0,0,0,.03.451h-.9c0-.268-.03-.54-.03-.808h-.025a1.947,1.947,0,0,1-.8.728,2.478,2.478,0,0,1-1.065.213,2.543,2.543,0,0,1-.7-.1,1.794,1.794,0,0,1-.59-.3,1.4,1.4,0,0,1-.4-.5,1.7,1.7,0,0,1,.084-1.551,1.754,1.754,0,0,1,.629-.57,3.087,3.087,0,0,1,.927-.312,6.391,6.391,0,0,1,1.14-.094h.738v-.228a1.055,1.055,0,0,0-.079-.4,1.07,1.07,0,0,0-.233-.367,1.224,1.224,0,0,0-.391-.258,1.6,1.6,0,0,0-.56-.094,2.176,2.176,0,0,0-.5.055,2.115,2.115,0,0,0-.4.144,1.586,1.586,0,0,0-.322.193l-.282.213Zm2.839,2.106a4.519,4.519,0,0,0-.733.04,2.646,2.646,0,0,0-.689.154,1.308,1.308,0,0,0-.5.312.7.7,0,0,0-.2.5.743.743,0,0,0,.307.664,1.531,1.531,0,0,0,.837.2,1.591,1.591,0,0,0,.7-.139,1.259,1.259,0,0,0,.471-.367,1.284,1.284,0,0,0,.258-.5,1.907,1.907,0,0,0,.079-.545v-.337Z" transform="translate(-90.13 -40.37)" fill="#4c4b45"/>
      <path id="Path_19" data-name="Path 19" d="M192.775,81.487a1.571,1.571,0,0,0-.446-.377,1.289,1.289,0,0,0-.644-.154,1.269,1.269,0,0,0-.624.154.521.521,0,0,0-.109.823,1.125,1.125,0,0,0,.357.238,2.12,2.12,0,0,0,.446.134l.4.079a4.181,4.181,0,0,1,.61.188,1.68,1.68,0,0,1,.5.292,1.293,1.293,0,0,1,.327.436,1.586,1.586,0,0,1,.114.629,1.487,1.487,0,0,1-.188.768,1.606,1.606,0,0,1-.5.5,2.052,2.052,0,0,1-.689.292,3.439,3.439,0,0,1-.778.089,2.973,2.973,0,0,1-1.16-.2,2.076,2.076,0,0,1-.892-.738l.743-.61a3.122,3.122,0,0,0,.545.441,1.4,1.4,0,0,0,.743.188,2.046,2.046,0,0,0,.387-.04,1.065,1.065,0,0,0,.347-.124.738.738,0,0,0,.248-.213.537.537,0,0,0-.045-.664,1.08,1.08,0,0,0-.337-.233,2.559,2.559,0,0,0-.416-.134l-.387-.084a5.26,5.26,0,0,1-.59-.188,1.947,1.947,0,0,1-.5-.268,1.248,1.248,0,0,1-.362-.426,1.387,1.387,0,0,1-.134-.639,1.447,1.447,0,0,1,.634-1.234,1.982,1.982,0,0,1,.649-.3,2.675,2.675,0,0,1,.7-.1,2.735,2.735,0,0,1,1.036.2,1.616,1.616,0,0,1,.783.674Z" transform="translate(-95.593 -40.36)" fill="#4c4b45"/>
      <path id="Path_20" data-name="Path 20" d="M199.88,73.91h.991v3.964h.059a1.487,1.487,0,0,1,.659-.694,2.22,2.22,0,0,1,1.09-.263,2.3,2.3,0,0,1,.733.119,1.615,1.615,0,0,1,.615.367,1.7,1.7,0,0,1,.421.629,2.449,2.449,0,0,1,.159.917v3.429h-.991V79.247a1.824,1.824,0,0,0-.1-.629,1.11,1.11,0,0,0-.273-.426.991.991,0,0,0-.387-.238,1.387,1.387,0,0,0-.451-.074,1.61,1.61,0,0,0-.585.1,1.2,1.2,0,0,0-.471.317,1.546,1.546,0,0,0-.312.555,2.535,2.535,0,0,0-.114.8v2.725h-.991Z" transform="translate(-100.83 -37.288)" fill="#4c4b45"/>
      <path id="Path_21" data-name="Path 21" d="M216.36,80.29h1.165l1.576,4.153h0l1.487-4.153h1.075l-2.522,6.442c-.089.233-.183.441-.277.634a1.982,1.982,0,0,1-.347.5,1.486,1.486,0,0,1-.5.317,1.918,1.918,0,0,1-.7.109,3.5,3.5,0,0,1-.451-.03,1.486,1.486,0,0,1-.441-.114l.119-.922a1.55,1.55,0,0,0,.6.124,1.169,1.169,0,0,0,.4-.059.872.872,0,0,0,.277-.183.907.907,0,0,0,.193-.273,3.725,3.725,0,0,0,.159-.362l.327-.837Z" transform="translate(-109.143 -40.506)" fill="#4c4b45"/>
      <path id="Path_22" data-name="Path 22" d="M227.85,82.8a2.745,2.745,0,0,1,.218-1.09,2.874,2.874,0,0,1,.6-.887A2.814,2.814,0,0,1,230.679,80a2.859,2.859,0,0,1,1.11.218,2.8,2.8,0,0,1,1.487,1.487,2.835,2.835,0,0,1,0,2.18,2.775,2.775,0,0,1-.6.887,2.9,2.9,0,0,1-3.117.595,2.8,2.8,0,0,1-1.487-1.487A2.764,2.764,0,0,1,227.85,82.8Zm1.08,0a2.25,2.25,0,0,0,.119.743,1.69,1.69,0,0,0,.352.585,1.63,1.63,0,0,0,.55.382,1.784,1.784,0,0,0,.728.139,1.818,1.818,0,0,0,.728-.139,1.735,1.735,0,0,0,.55-.382,1.76,1.76,0,0,0,.347-.585,2.309,2.309,0,0,0,0-1.487,1.689,1.689,0,0,0-.347-.58,1.591,1.591,0,0,0-.55-.382,1.819,1.819,0,0,0-.728-.144,1.784,1.784,0,0,0-.728.144,1.487,1.487,0,0,0-.54.387,1.625,1.625,0,0,0-.352.58,2.254,2.254,0,0,0-.144.738Z" transform="translate(-114.939 -40.36)" fill="#4c4b45"/>
      <path id="Path_23" data-name="Path 23" d="M245.972,85.6h-.991v-.808h-.025a1.486,1.486,0,0,1-.659.689,2.23,2.23,0,0,1-1.09.263,2.26,2.26,0,0,1-.738-.119,1.64,1.64,0,0,1-.614-.362,1.769,1.769,0,0,1-.416-.634,2.344,2.344,0,0,1-.159-.912V80.29h.991v3.142a1.74,1.74,0,0,0,.1.634,1.253,1.253,0,0,0,.268.426.991.991,0,0,0,.387.233,1.418,1.418,0,0,0,.456.074,1.744,1.744,0,0,0,.585-.1,1.214,1.214,0,0,0,.5-.322,1.486,1.486,0,0,0,.312-.555,2.528,2.528,0,0,0,.114-.793V80.29h.991Z" transform="translate(-121.713 -40.506)" fill="#4c4b45"/>
      <path id="Path_24" data-name="Path 24" d="M253.25,80.179h.991v.847h0a1.377,1.377,0,0,1,.268-.391,1.789,1.789,0,0,1,.377-.292,1.893,1.893,0,0,1,.456-.2,1.685,1.685,0,0,1,.5-.074,1.457,1.457,0,0,1,.451.069l-.045,1.085L256,81.17a1.4,1.4,0,0,0-.248,0,1.487,1.487,0,0,0-1.135.416,1.848,1.848,0,0,0-.392,1.288v2.611h-.991Z" transform="translate(-127.743 -40.395)" fill="#4c4b45"/>
      <path id="Path_25" data-name="Path 25" d="M266.8,80.153h.941V81h0a.99.99,0,0,1,.178-.282,1.744,1.744,0,0,1,.357-.317,1.982,1.982,0,0,1,.5-.258,1.848,1.848,0,0,1,.654-.109,1.9,1.9,0,0,1,.991.248,1.819,1.819,0,0,1,.709.719,1.719,1.719,0,0,1,.728-.733,2.067,2.067,0,0,1,.956-.248,2.186,2.186,0,0,1,.991.2,1.63,1.63,0,0,1,.619.53,2.065,2.065,0,0,1,.307.753,4.55,4.55,0,0,1,.084.867V85.46h-.991V82.487a4.464,4.464,0,0,0-.035-.585,1.487,1.487,0,0,0-.164-.5.991.991,0,0,0-.347-.342,1.229,1.229,0,0,0-.595-.129,1.179,1.179,0,0,0-1.046.451,1.982,1.982,0,0,0-.312,1.155V85.46h-.991V82.69a5.9,5.9,0,0,0-.04-.694,1.68,1.68,0,0,0-.154-.545.912.912,0,0,0-.337-.362,1.184,1.184,0,0,0-.59-.129,1.357,1.357,0,0,0-.52.109,1.268,1.268,0,0,0-.446.317,1.64,1.64,0,0,0-.3.545,2.474,2.474,0,0,0-.109.778v2.75h-.991Z" transform="translate(-134.588 -40.369)" fill="#4c4b45"/>
      <path id="Path_26" data-name="Path 26" d="M285,82.815a2.745,2.745,0,0,1,.218-1.09,2.8,2.8,0,0,1,1.487-1.487,2.934,2.934,0,0,1,2.22,0,2.82,2.82,0,0,1,.9.6,2.873,2.873,0,0,1,.629.887,2.835,2.835,0,0,1,0,2.18,2.8,2.8,0,0,1-1.487,1.487,2.869,2.869,0,0,1-3.117-.595,2.765,2.765,0,0,1-.818-1.982Zm1.075,0a2.248,2.248,0,0,0,.124.743,1.758,1.758,0,0,0,.347.585,1.735,1.735,0,0,0,.55.382,1.818,1.818,0,0,0,.728.139,1.784,1.784,0,0,0,.728-.139,1.631,1.631,0,0,0,.55-.382,1.691,1.691,0,0,0,.352-.585,2.4,2.4,0,0,0,0-1.487,1.627,1.627,0,0,0-.352-.58,1.487,1.487,0,0,0-.55-.382,1.784,1.784,0,0,0-.728-.144,1.819,1.819,0,0,0-.728.144,1.591,1.591,0,0,0-.55.382,1.69,1.69,0,0,0-.347.58,2.257,2.257,0,0,0-.129.743Z" transform="translate(-143.769 -40.37)" fill="#4c4b45"/>
      <path id="Path_27" data-name="Path 27" d="M297.1,80.29h1.164l1.591,4.073,1.526-4.073h1.075L300.375,85.6h-1.11Z" transform="translate(-149.873 -40.506)" fill="#4c4b45"/>
      <path id="Path_28" data-name="Path 28" d="M308.82,75.693a.728.728,0,0,1,.218-.525.718.718,0,0,1,.52-.218.743.743,0,0,1,.743.743.718.718,0,0,1-.218.5.728.728,0,0,1-.525.218.743.743,0,0,1-.738-.738Zm.233,1.9h.991V82.9h-.991Z" transform="translate(-155.786 -37.812)" fill="#4c4b45"/>
      <path id="Path_29" data-name="Path 29" d="M314.445,83.185a1.348,1.348,0,0,0,.149.634,1.615,1.615,0,0,0,.4.5,1.868,1.868,0,0,0,.57.312,2.071,2.071,0,0,0,.674.114,1.526,1.526,0,0,0,.818-.218,2.7,2.7,0,0,0,.639-.58l.763.585a2.8,2.8,0,0,1-2.354,1.085,2.9,2.9,0,0,1-1.14-.213,2.478,2.478,0,0,1-.862-.59,2.592,2.592,0,0,1-.545-.882,3.217,3.217,0,0,1-.188-1.105,2.9,2.9,0,0,1,.208-1.105,2.756,2.756,0,0,1,.57-.887,2.641,2.641,0,0,1,.867-.59,2.863,2.863,0,0,1,1.1-.213,2.631,2.631,0,0,1,1.194.248,2.353,2.353,0,0,1,.8.644,2.6,2.6,0,0,1,.456.9,3.922,3.922,0,0,1,.139,1.016v.357Zm3.2-.808a2.181,2.181,0,0,0-.109-.614,1.292,1.292,0,0,0-.287-.5,1.273,1.273,0,0,0-.5-.327,1.709,1.709,0,0,0-.664-.119,1.645,1.645,0,0,0-1.2.5,1.745,1.745,0,0,0-.327.5,1.349,1.349,0,0,0-.119.54Z" transform="translate(-158.081 -40.374)" fill="#4c4b45"/>
      <path id="Path_30" data-name="Path 30" d="M328.385,81.5a1.546,1.546,0,0,0-.441-.377,1.3,1.3,0,0,0-.644-.154,1.239,1.239,0,0,0-.624.154.527.527,0,0,0-.114.823,1.209,1.209,0,0,0,.362.238,2.079,2.079,0,0,0,.441.134l.406.079a4.6,4.6,0,0,1,.61.188,1.657,1.657,0,0,1,.5.292,1.294,1.294,0,0,1,.327.436,1.666,1.666,0,0,1-.074,1.4,1.542,1.542,0,0,1-.5.5,2.1,2.1,0,0,1-.689.292,3.469,3.469,0,0,1-.783.089,2.973,2.973,0,0,1-1.16-.2,2.1,2.1,0,0,1-.892-.738l.763-.629a2.973,2.973,0,0,0,.55.441,1.4,1.4,0,0,0,.738.188,2.047,2.047,0,0,0,.386-.04,1.1,1.1,0,0,0,.352-.124.674.674,0,0,0,.243-.213.519.519,0,0,0-.045-.664,1.026,1.026,0,0,0-.337-.233,2.663,2.663,0,0,0-.411-.134l-.386-.084a5.35,5.35,0,0,1-.62-.168,2.028,2.028,0,0,1-.5-.268,1.293,1.293,0,0,1-.357-.426,1.387,1.387,0,0,1-.134-.639,1.408,1.408,0,0,1,.173-.723,1.487,1.487,0,0,1,.456-.5,2.081,2.081,0,0,1,.654-.3,2.651,2.651,0,0,1,.733-.1,2.711,2.711,0,0,1,1.031.2,1.616,1.616,0,0,1,.783.674Z" transform="translate(-164.003 -40.375)" fill="#4c4b45"/>
      <path id="Path_31" data-name="Path 31" d="M340.7,82.8a2.746,2.746,0,0,1,.218-1.09,2.874,2.874,0,0,1,.6-.887A2.815,2.815,0,0,1,343.529,80a2.859,2.859,0,0,1,1.11.218,2.8,2.8,0,0,1,1.487,1.487,2.835,2.835,0,0,1,0,2.18,2.774,2.774,0,0,1-.6.887,2.9,2.9,0,0,1-3.117.595,2.8,2.8,0,0,1-1.487-1.487A2.764,2.764,0,0,1,340.7,82.8Zm1.08,0a2.249,2.249,0,0,0,.119.743,1.689,1.689,0,0,0,.352.585,1.63,1.63,0,0,0,.55.382,1.784,1.784,0,0,0,.728.139,1.818,1.818,0,0,0,.728-.139,1.734,1.734,0,0,0,.55-.382,1.759,1.759,0,0,0,.347-.585,2.31,2.31,0,0,0,0-1.487,1.689,1.689,0,0,0-.342-.575,1.591,1.591,0,0,0-.55-.382,1.818,1.818,0,0,0-.728-.144,1.784,1.784,0,0,0-.728.144,1.487,1.487,0,0,0-.55.382,1.625,1.625,0,0,0-.352.58A2.254,2.254,0,0,0,341.78,82.8Z" transform="translate(-171.868 -40.36)" fill="#4c4b45"/>
      <path id="Path_32" data-name="Path 32" d="M354.1,80.179h.991v.847h0a1.487,1.487,0,0,1,.664-.694,2.2,2.2,0,0,1,1.085-.263,2.273,2.273,0,0,1,.733.119,1.635,1.635,0,0,1,.619.367,1.756,1.756,0,0,1,.421.629,2.45,2.45,0,0,1,.154.917v3.385h-.991V82.354a1.708,1.708,0,0,0-.1-.629,1.055,1.055,0,0,0-.649-.664,1.4,1.4,0,0,0-.456-.074,1.585,1.585,0,0,0-.58.1,1.165,1.165,0,0,0-.471.317,1.485,1.485,0,0,0-.317.555,2.549,2.549,0,0,0-.109.8v2.725H354.1Z" transform="translate(-178.628 -40.395)" fill="#4c4b45"/>
      <path id="Path_33" data-name="Path 33" d="M366.27,73.91h.991v8.469h-.991Z" transform="translate(-184.767 -37.288)" fill="#4c4b45"/>
      <path id="Path_34" data-name="Path 34" d="M370.66,75.692a.738.738,0,0,1,1.264-.525.728.728,0,0,1,.218.525.718.718,0,0,1-.218.5.743.743,0,0,1-1.264-.5Zm.238,1.9h.991V82.9H370.9Z" transform="translate(-186.982 -37.811)" fill="#4c4b45"/>
      <path id="Path_35" data-name="Path 35" d="M375.85,80.179h.991v.847h.025a1.487,1.487,0,0,1,.659-.694,2.23,2.23,0,0,1,1.09-.263,2.3,2.3,0,0,1,.733.119,1.576,1.576,0,0,1,.615.367,1.7,1.7,0,0,1,.421.629,2.449,2.449,0,0,1,.159.917v3.385h-.991V82.354a1.715,1.715,0,0,0-.1-.629,1.165,1.165,0,0,0-.268-.426,1.051,1.051,0,0,0-.387-.238,1.417,1.417,0,0,0-.456-.074,1.631,1.631,0,0,0-.585.1,1.2,1.2,0,0,0-.471.317,1.546,1.546,0,0,0-.312.555,2.536,2.536,0,0,0-.114.8v2.725h-.991Z" transform="translate(-189.6 -40.395)" fill="#4c4b45"/>
      <path id="Path_36" data-name="Path 36" d="M388.325,83.18a1.294,1.294,0,0,0,.154.634,1.531,1.531,0,0,0,.4.5,1.868,1.868,0,0,0,.57.312,2.071,2.071,0,0,0,.674.114,1.487,1.487,0,0,0,.818-.218,2.7,2.7,0,0,0,.659-.585l.763.585a2.8,2.8,0,0,1-2.354,1.085,2.905,2.905,0,0,1-1.14-.213A2.516,2.516,0,0,1,388,84.8a2.67,2.67,0,0,1-.545-.882,3.216,3.216,0,0,1-.188-1.105,2.9,2.9,0,0,1,.208-1.105,2.755,2.755,0,0,1,.57-.887,2.61,2.61,0,0,1,.872-.59,2.82,2.82,0,0,1,1.1-.213,2.631,2.631,0,0,1,1.194.248,2.354,2.354,0,0,1,.8.644,2.607,2.607,0,0,1,.456.9,3.724,3.724,0,0,1,.139,1.016v.357Zm3.186-.808a2.181,2.181,0,0,0-.109-.614,1.349,1.349,0,0,0-.282-.5,1.332,1.332,0,0,0-.5-.327,1.71,1.71,0,0,0-.664-.119,1.68,1.68,0,0,0-.679.139,1.61,1.61,0,0,0-.52.367,1.665,1.665,0,0,0-.332.5,1.347,1.347,0,0,0-.119.54Z" transform="translate(-195.361 -40.369)" fill="#4c4b45"/>
    </g>
  </g>
</svg>
